<?xml version="1.0" standalone="no"?>
<!DOCTYPE svg PUBLIC "-//W3C//DTD SVG 20010904//EN"
 "http://www.w3.org/TR/2001/REC-SVG-20010904/DTD/svg10.dtd">
<svg version="1.0" xmlns="http://www.w3.org/2000/svg"
 width="3464.000000pt" height="1062.000000pt" viewBox="0 0 3464.000000 1062.000000"
 preserveAspectRatio="xMidYMid meet">

<g transform="translate(0.000000,1062.000000) scale(0.100000,-0.100000)"
fill="#22c55e" stroke="#fff" stroke-width="100">
<path d="M11490 9745 c-25 -7 -99 -23 -165 -35 -385 -69 -549 -113 -1040 -275
-105 -35 -215 -74 -245 -88 -30 -13 -80 -34 -110 -45 -170 -63 -457 -213 -630
-328 -72 -48 -344 -271 -477 -391 -112 -101 -285 -299 -363 -414 -61 -91 -204
-375 -286 -566 -55 -132 -78 -212 -99 -348 -9 -60 -25 -144 -36 -185 -33 -132
-44 -301 -31 -447 40 -418 169 -773 390 -1070 54 -74 160 -186 245 -261 26
-23 47 -50 47 -59 0 -26 -136 -251 -249 -411 -118 -168 -161 -221 -283 -349
-49 -50 -88 -96 -88 -103 0 -6 14 -19 31 -28 17 -9 57 -37 90 -60 37 -28 73
-46 98 -49 36 -5 43 -2 91 43 49 45 206 276 440 641 90 142 125 183 154 183
11 0 50 -10 86 -21 115 -36 231 -49 470 -49 425 0 606 40 975 220 333 162 621
392 823 658 255 334 410 701 461 1092 7 47 16 115 21 153 13 87 13 507 0 594
-43 306 -57 388 -86 533 -19 91 -39 184 -44 208 -23 96 -30 132 -49 237 -53
293 -56 333 -54 675 2 179 0 333 -3 343 -6 20 -21 20 -84 2z m-194 -357 c4 -6
8 -120 10 -252 1 -165 7 -268 17 -326 32 -173 47 -256 57 -295 5 -22 12 -53
15 -70 4 -16 11 -40 17 -52 6 -12 8 -37 5 -55 -3 -18 -3 -27 0 -20 2 6 9 12
15 12 7 0 9 -18 5 -47 -2 -27 -3 -40 0 -30 8 29 23 19 23 -16 0 -19 3 -37 7
-41 5 -4 15 -40 24 -81 14 -69 14 -73 -3 -84 -10 -6 -23 -11 -29 -11 -12 0
-184 -81 -310 -146 -37 -18 -133 -56 -215 -83 -82 -27 -165 -56 -184 -64 -19
-9 -93 -38 -165 -66 -71 -27 -150 -61 -175 -75 -53 -30 -60 -31 -60 -9 0 29
145 305 380 723 26 47 72 132 101 190 29 58 80 148 113 200 118 189 166 301
166 386 0 62 -11 72 -88 81 -38 4 -52 1 -74 -17 -23 -17 -135 -173 -185 -255
-63 -103 -111 -192 -171 -312 -39 -77 -116 -215 -170 -305 -55 -89 -117 -197
-139 -238 -22 -41 -61 -112 -86 -157 -26 -45 -68 -126 -95 -180 -132 -263
-257 -477 -272 -468 -4 2 -12 30 -19 62 -13 63 -98 322 -111 338 -4 6 -28 78
-54 160 -26 83 -61 186 -78 230 -46 118 -155 333 -198 390 -38 51 -90 149 -90
171 0 15 57 64 74 64 8 0 42 30 77 66 43 44 95 83 159 119 52 29 121 69 153
88 31 19 94 49 140 67 45 17 118 49 162 70 44 22 107 48 141 59 33 11 114 40
180 64 65 25 160 54 209 66 50 13 142 40 205 61 116 39 200 59 340 79 41 6 86
13 100 15 51 7 69 6 76 -6z m-2171 -1035 c26 -54 62 -116 80 -138 18 -22 48
-71 67 -110 48 -95 268 -656 268 -683 0 -16 36 -105 106 -262 68 -153 68 -156
-48 -375 -52 -99 -108 -203 -124 -230 -90 -155 -109 -185 -115 -185 -7 0 -67
148 -80 195 -8 34 -45 136 -64 180 -33 76 -128 332 -166 445 -52 156 -161 444
-201 528 -33 70 -46 79 -133 90 -56 7 -60 9 -65 37 -5 27 -6 28 -12 8 -11 -40
-2 -107 24 -178 15 -38 45 -131 68 -205 47 -154 106 -335 120 -365 14 -32 163
-459 181 -521 5 -17 48 -106 94 -198 50 -98 86 -181 87 -199 1 -41 -17 -83
-98 -229 -55 -99 -69 -118 -85 -113 -15 5 -19 1 -19 -20 0 -15 -13 -53 -29
-84 -16 -31 -50 -99 -74 -151 -25 -52 -52 -104 -61 -115 -14 -19 -16 -19 -62
25 -83 80 -214 243 -257 320 -128 227 -219 513 -247 772 -20 192 -11 425 23
598 3 14 10 52 17 85 15 76 31 137 41 150 4 6 17 43 28 83 19 68 67 173 84
180 4 2 7 9 7 15 0 6 8 20 18 31 11 12 29 48 42 81 64 166 66 170 229 340 47
50 106 113 131 140 38 42 165 155 175 155 1 0 24 -44 50 -97z m2415 -577 c0
-7 -5 -27 -11 -45 -8 -22 -16 -30 -28 -26 -22 7 -214 -89 -286 -142 -23 -17
-26 -22 -12 -23 21 0 23 -20 2 -20 -8 0 -15 -4 -15 -10 0 -5 -7 -10 -15 -10
-18 0 -19 -12 -4 -27 7 -7 6 -15 -5 -26 -9 -9 -16 -27 -16 -41 0 -14 -5 -28
-11 -31 -6 -4 -8 -14 -4 -22 4 -13 -1 -15 -32 -10 -21 4 -42 2 -50 -5 -19 -15
-18 -117 2 -124 10 -4 13 -14 9 -30 -4 -15 -2 -24 5 -24 17 0 13 -27 -5 -34
-12 -5 -15 -16 -12 -40 3 -27 0 -36 -14 -39 -20 -6 -35 -34 -23 -45 4 -4 15 3
25 16 19 23 19 23 30 2 9 -17 8 -20 -10 -20 -11 0 -20 -4 -20 -10 0 -5 -4 -10
-10 -10 -5 0 -33 -11 -62 -24 -206 -94 -490 -181 -757 -231 -76 -15 -91 -19
-276 -73 -55 -16 -103 -27 -107 -23 -8 7 139 309 177 366 32 48 43 66 82 139
86 156 158 238 197 223 31 -12 208 23 361 72 417 132 638 219 795 315 79 48
100 55 100 32z m-434 -703 c-10 -10 -19 5 -10 18 6 11 8 11 12 0 2 -7 1 -15
-2 -18z m109 3 c-28 -19 -107 -56 -119 -56 -6 0 2 11 18 25 16 14 42 25 57 25
15 0 31 5 34 10 3 6 11 10 18 10 6 0 3 -6 -8 -14z m309 -111 c-9 -23 -185
-159 -257 -199 -117 -65 -324 -154 -480 -206 -86 -28 -159 -56 -162 -61 -4 -5
-18 -9 -33 -9 -27 0 -27 -1 6 -17 l34 -16 -24 -18 c-12 -10 -29 -19 -37 -19
-8 0 -11 -7 -8 -20 6 -23 -12 -39 -23 -20 -12 19 -18 -44 -16 -150 1 -52 -1
-100 -5 -105 -15 -21 -14 -70 1 -70 8 -1 22 -4 30 -8 8 -3 31 -10 50 -16 29
-8 31 -9 10 -10 -14 -1 -45 -8 -70 -17 -43 -16 -125 -35 -315 -75 -49 -10
-119 -25 -155 -32 -36 -8 -101 -20 -145 -26 -183 -29 -434 -83 -493 -107 -71
-30 -108 -68 -118 -121 -10 -55 8 -63 145 -63 167 0 416 28 611 69 25 5 92 18
149 30 57 12 138 30 181 41 43 11 82 20 87 20 24 0 -90 -53 -142 -66 -33 -7
-89 -23 -125 -34 -36 -11 -146 -34 -245 -50 -99 -16 -216 -36 -260 -44 -44 -8
-105 -18 -135 -21 -105 -13 -129 -24 -150 -72 -11 -24 -30 -48 -44 -54 -13 -6
-27 -21 -30 -32 -4 -17 -7 -18 -20 -7 -20 15 -22 -3 -3 -22 7 -7 13 -17 13
-23 0 -15 117 -34 219 -36 80 -1 85 -2 50 -10 -75 -18 -497 3 -535 26 -17 10
-12 33 25 103 50 95 101 178 169 272 32 45 67 103 77 130 19 51 70 148 99 190
9 14 47 81 85 150 37 69 88 158 112 198 l44 72 78 0 c43 0 128 9 189 20 263
47 788 188 992 265 187 71 290 121 444 213 66 40 123 72 127 72 5 0 6 -7 3
-15z m-841 -482 c-7 -2 -19 -2 -25 0 -7 3 -2 5 12 5 14 0 19 -2 13 -5z m287
-547 c0 -2 -8 -10 -17 -17 -16 -13 -17 -12 -4 4 13 16 21 21 21 13z m-170
-165 c0 -12 -61 -71 -74 -71 -5 0 8 18 30 39 44 44 44 45 44 32z"/>
<path d="M10060 8873 c0 -10 22 -63 49 -118 26 -55 53 -117 60 -138 11 -33 31
-60 31 -40 -1 26 -47 150 -82 221 -44 87 -58 106 -58 75z"/>
<path d="M11393 8234 c4 -21 7 -48 7 -59 1 -18 1 -19 11 -3 11 20 2 85 -14 95
-7 4 -8 -7 -4 -33z"/>
<path d="M11431 8204 c0 -11 3 -14 6 -6 3 7 2 16 -1 19 -3 4 -6 -2 -5 -13z"/>
<path d="M11382 8175 c0 -16 2 -22 5 -12 2 9 2 23 0 30 -3 6 -5 -1 -5 -18z"/>
<path d="M11356 8113 c-3 -10 -9 -24 -12 -31 -4 -10 1 -13 17 -10 18 2 25 10
27 31 4 31 -22 39 -32 10z"/>
<path d="M11320 8040 c0 -5 5 -10 10 -10 6 0 10 5 10 10 0 6 -4 10 -10 10 -5
0 -10 -4 -10 -10z"/>
<path d="M11370 8030 c0 -5 5 -10 10 -10 6 0 10 5 10 10 0 6 -4 10 -10 10 -5
0 -10 -4 -10 -10z"/>
<path d="M11315 8000 c4 -6 11 -8 16 -5 14 9 11 15 -7 15 -8 0 -12 -5 -9 -10z"/>
<path d="M11000 7076 c0 -8 4 -17 9 -20 5 -4 7 3 4 14 -6 23 -13 26 -13 6z"/>
<path d="M10525 6473 c-16 -3 -34 -9 -40 -14 -12 -12 56 0 70 12 5 5 7 8 5 8
-3 -1 -18 -4 -35 -6z"/>
<path d="M6000 9624 c-14 -3 -81 -11 -150 -20 -201 -26 -623 -128 -760 -184
-25 -10 -76 -30 -115 -45 -378 -142 -655 -291 -990 -535 -49 -35 -94 -68 -100
-72 -5 -4 -44 -35 -85 -70 -41 -35 -91 -76 -110 -92 -112 -91 -470 -461 -611
-631 -79 -95 -239 -329 -290 -425 -13 -25 -34 -59 -46 -77 -22 -35 -99 -210
-138 -319 -13 -36 -29 -104 -36 -152 -15 -110 -3 -164 41 -187 38 -20 68 -19
184 5 53 11 176 32 274 46 97 13 191 29 207 34 47 13 197 38 345 55 169 20
245 10 321 -41 139 -93 352 -280 390 -342 12 -17 25 -29 31 -26 5 3 43 59 85
123 137 212 270 386 354 465 151 142 416 328 562 395 251 115 581 201 771 201
45 0 87 4 94 9 19 11 21 59 33 586 6 259 13 549 16 645 5 160 -14 503 -33 623
l-7 37 -106 -1 c-58 -1 -117 -3 -131 -5z"/>
<path d="M7158 9533 c7 -3 16 -2 19 1 4 3 -2 6 -13 5 -11 0 -14 -3 -6 -6z"/>
<path d="M7224 9521 c10 -16 45 -19 50 -5 4 10 -3 14 -25 14 -17 0 -28 -4 -25
-9z"/>
<path d="M7320 9501 c14 -4 24 -13 23 -19 -4 -17 34 -24 56 -10 15 9 25 9 43
1 13 -6 30 -14 38 -16 10 -3 5 -7 -13 -12 -24 -6 -28 -12 -25 -39 3 -30 2 -31
-39 -34 -29 -2 -43 -8 -43 -18 0 -8 -8 -14 -18 -14 -24 0 -62 -32 -62 -52 0
-19 -33 -58 -49 -58 -15 0 -61 -45 -61 -60 0 -5 -8 -10 -18 -10 -23 0 -42 -19
-42 -42 0 -11 -7 -18 -20 -18 -13 0 -20 -7 -20 -20 0 -15 -7 -20 -25 -20 -21
0 -25 -5 -25 -29 0 -17 -4 -33 -10 -36 -5 -3 -10 -21 -10 -39 0 -20 -8 -40
-19 -50 -11 -10 -22 -28 -24 -40 -3 -17 -5 -16 -6 6 -1 20 -5 26 -16 22 -8 -4
-15 -14 -16 -23 -1 -9 -4 -6 -9 9 l-8 25 -1 -26 c-1 -15 -8 -30 -17 -33 -8 -3
-13 -2 -10 3 3 5 -4 8 -17 7 -15 0 -24 -8 -24 -19 -1 -13 4 -18 20 -17 45 4
57 0 57 -20 0 -13 -7 -20 -19 -20 -11 0 -21 -6 -24 -12 -4 -10 -7 -10 -18 0
-16 14 -59 16 -59 2 0 -5 -14 -10 -30 -10 -18 0 -33 -6 -36 -15 -10 -25 -34
-17 -34 10 0 19 -10 31 -35 46 -33 20 -35 24 -36 72 0 29 -4 70 -8 92 -10 55
-23 -540 -20 -893 2 -156 6 -288 9 -293 4 -5 71 -16 151 -24 187 -19 197 -21
374 -61 187 -43 313 -81 451 -139 110 -46 144 -54 144 -33 0 6 9 32 21 57 11
25 24 55 29 66 4 11 47 100 94 197 47 98 96 199 108 225 53 115 116 210 299
451 68 90 242 272 363 380 38 34 67 64 65 66 -66 56 -362 207 -699 356 -95 42
-364 130 -397 130 -12 0 -25 5 -29 11 -3 6 -17 9 -30 6 -13 -2 -56 7 -95 20
-59 21 -73 23 -81 12 -7 -11 -11 -11 -15 -1 -2 6 -17 12 -31 11 l-27 -1 25 -7z
m-603 -797 c-3 -3 -12 -4 -19 -1 -8 3 -5 6 6 6 11 1 17 -2 13 -5z"/>
<path d="M6600 9309 c0 -11 5 -17 10 -14 6 3 10 13 10 21 0 8 -4 14 -10 14 -5
0 -10 -9 -10 -21z"/>
<path d="M1645 8913 c-16 -2 -73 -15 -125 -29 -52 -13 -100 -24 -107 -24 -7 0
-36 -11 -65 -25 -28 -14 -59 -25 -68 -25 -21 0 -150 -126 -150 -147 0 -4 -17
-32 -39 -63 -43 -60 -85 -155 -96 -211 -8 -44 15 -142 52 -216 14 -31 50 -76
84 -107 174 -161 440 -194 639 -78 107 61 222 200 259 310 56 165 -5 376 -153
528 -87 88 -123 102 -231 87z"/>
<path d="M15225 7361 c-220 -25 -281 -33 -295 -40 -8 -5 -33 -12 -55 -15 -133
-24 -389 -133 -532 -226 -70 -46 -191 -163 -257 -248 -118 -154 -206 -431
-206 -652 0 -135 39 -355 84 -478 84 -231 307 -467 541 -573 65 -29 284 -104
410 -140 39 -11 95 -27 125 -35 30 -9 71 -20 90 -24 19 -4 71 -18 115 -30 44
-12 103 -28 130 -35 277 -71 429 -143 523 -250 69 -78 85 -122 84 -232 0 -89
-2 -100 -36 -169 -63 -126 -127 -176 -296 -229 -106 -34 -418 -31 -600 6 -288
58 -495 162 -824 414 -54 42 -104 74 -110 72 -6 -2 -48 -58 -93 -126 -45 -67
-108 -154 -140 -194 -90 -111 -231 -305 -238 -327 -4 -11 -4 -28 0 -38 8 -26
436 -308 577 -380 216 -110 572 -213 843 -244 201 -23 551 -6 649 32 15 5 38
10 50 10 37 0 288 86 367 126 119 59 237 146 336 246 231 235 309 365 370 618
23 95 26 442 5 530 -71 290 -216 494 -457 646 -73 45 -205 114 -221 114 -3 0
-20 7 -37 15 -47 21 -187 69 -292 100 -33 10 -78 24 -100 31 -23 8 -48 14 -57
14 -8 0 -38 7 -64 14 -27 8 -80 24 -119 34 -38 11 -99 27 -135 37 -217 60
-436 152 -513 216 -113 94 -150 279 -82 413 86 170 342 258 658 227 215 -21
489 -135 762 -317 76 -50 92 -56 115 -44 10 5 66 76 125 157 182 252 325 456
325 463 0 32 -169 160 -332 252 -266 149 -434 205 -744 247 -107 15 -361 22
-449 12z"/>
<path d="M26423 7344 c-101 -7 -197 -17 -215 -22 -18 -6 -51 -13 -73 -17 -38
-6 -64 -13 -195 -52 -80 -24 -264 -113 -344 -167 -120 -79 -289 -257 -362
-381 -54 -91 -105 -223 -140 -360 -32 -128 -20 -320 36 -540 83 -334 299 -577
611 -690 158 -57 524 -164 804 -235 248 -63 308 -82 401 -125 138 -65 215
-132 261 -224 25 -52 27 -65 27 -186 1 -149 -7 -171 -89 -263 -55 -61 -125
-97 -245 -125 -118 -28 -422 -30 -560 -4 -291 55 -510 158 -751 354 -40 32
-104 84 -143 116 -96 78 -103 76 -184 -43 -36 -52 -145 -200 -243 -328 -99
-128 -179 -240 -179 -250 0 -24 7 -32 85 -94 119 -95 463 -291 601 -341 179
-66 341 -118 439 -142 39 -9 87 -21 108 -26 191 -50 559 -64 762 -30 214 36
461 109 600 178 172 85 378 265 492 428 63 92 144 274 170 385 25 104 25 451
0 555 -71 302 -233 505 -552 694 -44 26 -107 58 -140 71 -33 13 -64 27 -70 31
-5 3 -84 29 -175 58 -169 53 -210 65 -340 101 -41 11 -95 27 -120 34 -25 8
-74 22 -110 31 -195 52 -263 73 -380 118 -90 35 -113 49 -160 96 -74 74 -105
163 -98 279 9 161 100 259 309 334 59 21 81 23 269 23 245 0 306 -12 544 -102
162 -62 267 -124 391 -228 105 -90 87 -96 221 73 280 350 374 481 374 518 0
45 -149 158 -326 246 -104 52 -253 118 -267 118 -5 0 -23 6 -40 14 -55 24
-185 57 -342 87 -80 15 -455 53 -475 48 -3 -1 -87 -8 -187 -15z"/>
<path d="M31232 7345 c-89 -7 -170 -16 -180 -20 -9 -4 -51 -13 -92 -20 -143
-26 -238 -52 -350 -95 -30 -12 -66 -25 -80 -29 -106 -34 -309 -163 -480 -305
-293 -244 -468 -470 -590 -763 -23 -54 -45 -107 -50 -118 -24 -56 -73 -235
-81 -298 -5 -40 -14 -99 -20 -131 -17 -95 -15 -476 4 -576 8 -47 18 -107 22
-135 14 -110 111 -380 192 -535 37 -70 175 -276 250 -375 141 -184 438 -425
684 -555 89 -47 335 -137 449 -163 203 -48 229 -51 485 -51 204 0 262 3 313
17 35 9 78 17 95 17 30 0 153 29 207 49 14 5 50 17 80 26 67 20 92 31 245 105
108 52 155 81 330 200 122 83 370 358 477 527 43 68 136 254 168 333 12 30 26
66 32 80 107 262 154 536 145 850 -3 102 -11 214 -17 250 -34 202 -42 242 -61
310 -43 156 -122 333 -228 512 -167 284 -403 505 -702 658 -287 147 -477 202
-819 236 -167 16 -205 16 -428 -1z m418 -812 c150 -29 323 -102 458 -195 239
-164 397 -401 485 -728 37 -137 42 -179 42 -345 -1 -198 -12 -264 -78 -460
-93 -276 -345 -560 -612 -689 -107 -52 -141 -64 -295 -102 -102 -26 -378 -26
-495 0 -119 26 -282 81 -350 117 -241 128 -511 449 -595 708 -58 177 -64 224
-65 466 0 197 3 239 19 290 10 33 25 83 33 110 83 278 207 463 415 619 114 85
288 159 478 204 132 31 416 33 560 5z"/>
<path d="M18232 7283 c-20 -38 -24 -760 -22 -3475 0 -492 2 -589 14 -601 11
-11 27 -12 73 -5 32 4 680 9 1441 10 952 1 1386 5 1391 12 11 14 19 757 8 773
-5 8 -261 11 -1040 8 -609 -2 -1037 1 -1043 6 -8 7 -10 134 -7 452 2 243 6
448 8 455 4 11 158 12 822 8 450 -2 841 -7 870 -11 44 -6 53 -4 61 12 15 29 2
691 -13 707 -15 15 -572 43 -651 33 -88 -12 -1075 -10 -1086 1 -6 6 -11 23
-10 39 0 15 4 210 9 433 l8 405 1002 0 c714 0 1005 3 1013 11 8 8 10 118 8
368 -3 304 -5 358 -18 366 -9 6 -554 10 -1422 10 -1330 0 -1408 -1 -1416 -17z"/>
<path d="M22690 7293 c-25 -3 -49 -8 -53 -13 -5 -4 -11 -444 -13 -976 -2 -533
-9 -1176 -15 -1429 -14 -569 -9 -1611 7 -1639 12 -19 28 -20 425 -23 228 -2
420 0 426 5 17 11 19 344 15 2222 -2 817 0 1561 4 1653 6 153 5 169 -11 187
-18 19 -30 20 -379 18 -199 -1 -381 -3 -406 -5z"/>
<path d="M3675 6574 c-63 -13 -122 -32 -265 -82 -88 -31 -156 -49 -375 -102
-71 -18 -170 -45 -220 -62 -49 -16 -139 -42 -200 -58 -210 -55 -230 -60 -265
-74 -19 -8 -71 -28 -115 -44 -184 -69 -302 -115 -330 -127 -121 -54 -223 -104
-229 -113 -4 -6 3 -16 14 -22 11 -6 57 -44 102 -85 118 -108 127 -111 283
-106 72 2 159 4 195 5 l65 1 3 -84 c2 -74 -1 -97 -30 -180 l-32 -96 -1 -255
c0 -270 6 -342 56 -630 44 -256 59 -319 100 -424 10 -27 19 -53 19 -59 0 -12
87 -245 100 -269 6 -10 10 -22 10 -28 0 -6 10 -32 21 -58 12 -26 27 -60 34
-77 41 -97 133 -287 163 -340 92 -160 246 -396 326 -500 49 -64 265 -314 331
-384 149 -157 389 -364 644 -553 447 -333 1273 -649 1846 -707 278 -29 358
-32 414 -17 30 9 64 24 75 36 l21 21 -20 33 c-11 19 -98 114 -194 212 -203
209 -308 328 -423 480 -45 61 -111 145 -146 187 -108 132 -207 318 -218 411
-9 72 6 94 150 236 58 58 106 110 106 117 0 13 -147 86 -295 145 -164 65 -347
167 -455 255 -8 6 -58 46 -110 88 -261 210 -467 463 -624 768 -102 198 -225
526 -292 775 -14 53 -34 129 -45 167 -12 39 -27 99 -35 135 -9 36 -19 79 -25
96 -15 51 -13 57 23 50 42 -8 233 -101 364 -177 109 -63 421 -215 461 -225 13
-4 23 -3 23 0 0 6 -53 134 -115 276 -71 165 -126 278 -275 575 -85 171 -191
384 -234 475 -43 91 -105 220 -138 288 l-60 122 -62 -1 c-33 -1 -88 -7 -121
-15z"/>
<path d="M11880 5478 c-52 -26 -90 -78 -90 -121 0 -36 33 -96 65 -120 42 -30
126 -42 205 -28 56 10 77 20 110 49 63 56 71 133 19 188 -53 56 -225 74 -309
32z"/>
<path d="M12699 5476 c-66 -45 -83 -138 -36 -199 37 -49 89 -71 167 -71 152 0
245 115 178 219 -35 53 -91 75 -191 75 -71 0 -87 -3 -118 -24z"/>
<path d="M830 5468 c-86 -44 -103 -137 -36 -204 80 -80 262 -66 323 25 43 64
20 150 -50 181 -62 29 -178 27 -237 -2z"/>
<path d="M10640 4920 c-505 -238 -904 -317 -1227 -244 -63 14 -119 24 -124 22
-5 -2 -28 -48 -50 -103 -47 -118 -253 -535 -278 -561 -9 -11 -31 -40 -48 -65
-38 -55 -142 -161 -238 -244 -39 -33 -81 -70 -95 -83 -14 -13 -72 -55 -130
-94 -58 -39 -114 -78 -125 -88 -11 -9 -83 -54 -160 -99 -241 -142 -290 -172
-298 -186 -4 -7 -22 -17 -40 -20 -17 -4 -37 -12 -44 -17 -6 -5 -36 -22 -67
-37 -30 -16 -53 -31 -50 -34 4 -3 -4 -3 -15 0 -13 3 -29 -1 -41 -12 -11 -10
-20 -15 -20 -11 0 3 -13 0 -30 -9 -16 -8 -30 -15 -32 -15 -2 0 -4 190 -6 421
-3 405 -4 423 -23 450 l-20 29 -122 -139 c-67 -77 -178 -208 -247 -293 -143
-175 -649 -687 -749 -758 -35 -25 -91 -67 -124 -95 -33 -27 -74 -61 -92 -75
-147 -115 -265 -229 -265 -256 0 -30 66 -111 139 -172 62 -52 112 -85 279
-185 56 -34 187 -114 290 -177 172 -105 250 -156 522 -341 52 -36 164 -100
248 -143 142 -72 158 -78 215 -78 34 0 74 5 88 10 14 6 52 13 85 17 131 16
297 82 649 260 414 208 548 292 835 523 196 158 466 428 605 607 246 315 526
803 658 1145 78 201 113 304 155 445 37 127 81 320 112 490 12 66 28 151 36
188 23 107 18 108 -156 27z"/>
<path d="M11419 3282 c-53 -34 -106 -93 -125 -138 -18 -43 -18 -142 0 -185 61
-145 208 -208 341 -145 59 27 90 55 131 116 69 102 66 201 -10 287 -57 65
-122 93 -217 93 -65 0 -81 -4 -120 -28z"/>
<path d="M10555 2262 c-142 -49 -259 -196 -272 -342 -13 -143 62 -296 184
-373 99 -62 250 -85 342 -53 122 44 202 114 255 225 28 60 31 75 31 161 0 88
-3 101 -33 162 -39 79 -105 149 -173 184 -107 54 -240 68 -334 36z"/>
</g>
</svg>
